HIERARCHY
ROOT Hips
{
  OFFSET -69.4423 88.0299 51.6846
  CHANNELS 6 Xposition Yposition Zposition Zrotation Xrotation Yrotation
  JOINT Spine
  {
    OFFSET 12.0259 -0.162853 1.93176e-005
    CHANNELS 3 Zrotation Xrotation Yrotation
    JOINT Spine1
    {
      OFFSET 15.3169 -0.0121909 0
      CHANNELS 3 Zrotation Xrotation Yrotation
      JOINT Spine2
      {
        OFFSET 15.3176 -0.0121922 0
        CHANNELS 3 Zrotation Xrotation Yrotation
        JOINT Neck
        {
          OFFSET 19.9142 1.56236 0
          CHANNELS 3 Zrotation Xrotation Yrotation
          JOINT Head
          {
            OFFSET 6.92646 0 0
            CHANNELS 3 Zrotation Xrotation Yrotation
            End Site
            {
              OFFSET 20.7666 0 0
            }
          }
          JOINT LeftShoulder
          {
            OFFSET -4.94072 -1.14703 8.14416
            CHANNELS 3 Zrotation Xrotation Yrotation
            JOINT LeftArm
            {
              OFFSET 14.108 0 -2.74767e-005
              CHANNELS 3 Zrotation Xrotation Yrotation
              JOINT LeftForeArm
              {
                OFFSET 28.5802 -0.0783412 -0.0284884
                CHANNELS 3 Zrotation Xrotation Yrotation
                JOINT LeftHand
                {
                  OFFSET 27.092 0 0
                  CHANNELS 3 Zrotation Xrotation Yrotation
                  End Site
                  {
                    OFFSET 9.55928 -0.186424 0.145352
                  }
                }
              }
            }
          }
          JOINT RightShoulder
          {
            OFFSET -7.15748 -1.33027 -6.24935
            CHANNELS 3 Zrotation Xrotation Yrotation
            JOINT RightArm
            {
              OFFSET 14.108 0 1.82997e-005
              CHANNELS 3 Zrotation Xrotation Yrotation
              JOINT RightForeArm
              {
                OFFSET 28.5802 -0.0707221 2.30684e-005
                CHANNELS 3 Zrotation Xrotation Yrotation
                JOINT RightHand
                {
                  OFFSET 27.092 0 -1.30073e-005
                  CHANNELS 3 Zrotation Xrotation Yrotation
                  End Site
                  {
                    OFFSET 9.55929 -0.186417 -0.145354
                  }
                }
              }
            }
          }
        }
      }
    }
  }
  JOINT LeftUpLeg
  {
    OFFSET 0.00499725 -0.534999 8.837
    CHANNELS 3 Zrotation Xrotation Yrotation
    JOINT LeftLeg
    {
      OFFSET 39.9035 -0.00124594 0.000252775
      CHANNELS 3 Zrotation Xrotation Yrotation
      JOINT LeftFoot
      {
        OFFSET 39.6689 0 0
        CHANNELS 3 Zrotation Xrotation Yrotation
        JOINT LeftToe
        {
          OFFSET 10.1624 13.6296 0
          CHANNELS 3 Zrotation Xrotation Yrotation
          End Site
          {
            OFFSET 8.38147 0 0
          }
        }
      }
    }
  }
  JOINT RightUpLeg
  {
    OFFSET 0.00499725 -0.535 -8.837
    CHANNELS 3 Zrotation Xrotation Yrotation
    JOINT RightLeg
    {
      OFFSET 39.9036 -0.000268477 0.000106433
      CHANNELS 3 Zrotation Xrotation Yrotation
      JOINT RightFoot
      {
        OFFSET 39.6689 1.17892e-005 0
        CHANNELS 3 Zrotation Xrotation Yrotation
        JOINT RightToe
        {
          OFFSET 10.1624 13.6296 0
          CHANNELS 3 Zrotation Xrotation Yrotation
          End Site
          {
            OFFSET 8.38147 0 0
          }
        }
      }
    }
  }
}
MOTION
Frames:	19
Frame Time:	0.0333333
82.807 88.5626 -56.0079 95.948 45.2175 -2.56652 -0.65906 -0.0836789 0.404033 -1.31756 -0.171444 0.807248 -1.31756 -0.171467 0.807235 -18.6383 -0.391469 -12.0659 35.1649 0.584871 11.4272 -163.535 -3.47163 -95.0899 -22.2198 6.5733 88.2607 -22.4089 2.37739 -14.5882 5.62747 -84.5218 8.05602 -163.307 -5.00209 73.3241 -17.7813 -5.10717 -84.9374 -23.0617 -2.82852 14.3639 1.65908 79.5501 -1.42803 -5.31536 -0.338553 177.145 -20.9912 1.02457 -1.07621 7.06297 -2.12135 0.51165 90 -6.36111e-015 -6.36111e-015 -11.9799 2.92868 -176.691 -35.9048 -0.538625 -0.00239971 11.9904 6.26819 -1.32183 90 1.27222e-014 -3.18055e-015 
82.759 88.5582 -56.023 95.9118 45.1315 -2.6609 -0.634695 0.0175803 0.407052 -1.2695 0.0310716 0.814458 -1.26952 0.031077 0.814453 -18.5807 -0.487154 -11.9837 35.2747 0.411506 11.4346 -163.604 -3.53389 -94.9849 -22.0322 6.67629 88.3474 -22.3549 2.36701 -14.5579 5.19668 -83.3418 7.51587 -163.372 -5.04379 73.4276 -17.4637 -5.11722 -85.0802 -23.0585 -2.83124 14.3673 1.70261 79.4835 -1.48549 -5.30989 -1.00753 177.157 -21.0521 1.02702 -1.08821 6.71589 -2.7516 0.491156 90 -2.22639e-014 1.27222e-014 -11.9229 2.64163 -176.638 -35.8412 -0.535453 -0.00524021 12.1021 5.93749 -1.32656 90 -1.98785e-014 -0 
82.7703 88.5548 -55.9915 95.9928 45.1765 -2.35142 -0.618536 0.154261 0.284529 -1.23474 0.30576 0.570873 -1.23475 0.305763 0.570867 -19.0613 -0.569597 -11.1204 36.1907 -0.275259 10.3345 -163.074 -3.38491 -94.0801 -23.1032 6.81823 88.1147 -21.6699 2.24133 -14.1742 5.40279 -81.1084 7.54835 -162.849 -4.86944 74.2836 -16.5761 -4.86063 -85.2699 -22.814 -2.7784 14.2316 1.67545 79.1015 -1.46091 -5.11544 -2.5698 176.499 -20.4751 1.00849 -1.13107 6.26669 -4.24524 0.471823 90 -1.59028e-015 -9.54166e-015 -12.0856 2.81229 -176.997 -36.148 -0.533157 -0.00348135 12.3493 6.01949 -1.3684 90 1.59028e-015 -3.18055e-015 
82.7519 88.5509 -56.0589 96.1024 45.0725 -2.35844 -0.616303 0.182684 0.265653 -1.22134 0.365067 0.533025 -1.22135 0.365055 0.533006 -19.063 -0.62971 -10.7797 36.2302 -0.602372 9.87028 -163.064 -3.32114 -93.7517 -22.6824 6.91269 88.1938 -21.8248 2.27483 -14.2514 5.22882 -80.7323 7.41645 -162.83 -4.78729 74.6185 -16.4611 -4.81183 -85.3074 -22.7547 -2.76547 14.1999 1.6856 79.0468 -1.46569 -5.16918 -2.52678 176.468 -20.3887 0.999414 -1.13583 6.35355 -4.30498 0.483683 90 -1.59028e-015 3.18055e-015 -12.2379 2.85077 -177.023 -36.2109 -0.53217 -0.00226192 12.301 6.02478 -1.36134 90 -3.18055e-015 -6.36111e-015 
82.7498 88.5513 -56.0894 96.1159 45.1427 -2.39068 -0.618043 0.181165 0.269523 -1.21785 0.350714 0.541078 -1.21785 0.350702 0.541061 -19.2848 -0.498738 -10.7627 36.8969 -0.361606 9.80267 -162.822 -3.23517 -93.7594 -22.5112 6.97582 88.335 -21.8073 2.27311 -14.2464 5.37323 -80.8818 7.54373 -162.593 -4.68935 74.6137 -16.7281 -4.98594 -85.3083 -22.8225 -2.78069 14.2409 1.72498 79.3789 -1.50442 -5.2214 -2.26108 176.564 -20.4542 0.997747 -1.13485 6.46562 -3.97749 0.49109 90 1.59028e-015 3.18055e-015 -12.243 2.76723 -176.985 -36.1857 -0.531033 -0.00126732 12.2618 6.01691 -1.35899 90 3.02153e-014 1.27222e-014 
82.7747 88.5534 -56.1787 96.2931 45.2641 -2.49544 -0.616243 0.183446 0.248451 -1.23398 0.364755 0.499049 -1.23399 0.364758 0.499043 -19.1966 -0.557177 -10.6113 36.8906 -0.419317 9.82147 -162.91 -3.22627 -93.6096 -22.7621 7.06913 88.1678 -21.8151 2.26813 -14.2403 5.45005 -81.0276 7.62122 -162.678 -4.68465 74.7752 -16.9411 -5.04068 -85.3037 -22.9456 -2.80732 14.3077 1.72637 79.6814 -1.51802 -5.42335 -1.89323 176.65 -20.4933 1.00144 -1.13324 6.34674 -3.50027 0.470359 90 0 -3.18055e-015 -12.405 2.79669 -176.952 -36.1915 -0.529565 -0.000571428 12.2095 6.16686 -1.35967 90 -1.59028e-015 -3.18055e-015 
82.7643 88.5364 -56.1982 96.2742 45.1283 -2.39525 -0.601538 0.203504 0.237926 -1.20393 0.404956 0.478157 -1.20394 0.404955 0.478146 -18.9995 -0.531697 -10.7943 36.779 -0.267762 10.0082 -163.111 -3.23596 -93.7934 -22.5227 7.01501 88.2025 -21.7215 2.25724 -14.1946 5.12123 -80.6569 7.29584 -162.875 -4.68534 74.583 -16.7342 -5.01973 -85.1964 -23.0156 -2.81927 14.3337 1.64287 79.6223 -1.41923 -5.38268 -1.97686 176.542 -20.4561 1.00844 -1.13166 6.36994 -3.57646 0.474281 90 -6.36111e-015 2.54444e-014 -12.4071 2.76909 -177.059 -36.2158 -0.527584 -0.000248123 12.303 6.05504 -1.36328 90 1.59028e-015 6.36111e-015 
82.7706 88.5358 -56.2665 96.2643 45.1116 -2.45238 -0.588197 0.18146 0.276877 -1.17725 0.36054 0.555812 -1.17727 0.36053 0.555791 -18.9809 -0.483621 -10.9174 36.972 -0.240355 9.93638 -163.125 -3.21842 -93.9138 -22.1159 6.87597 88.333 -21.6211 2.2475 -14.1534 4.8842 -80.4729 7.03521 -162.89 -4.67713 74.4393 -15.8967 -4.66756 -85.0386 -22.8125 -2.77386 14.2163 1.47071 78.634 -1.22231 -5.47276 -2.58921 176.518 -20.539 1.01671 -1.13085 6.35273 -4.16839 0.479568 90 1.11319e-014 9.54166e-015 -12.4104 2.43132 -177.099 -36.1284 -0.525018 -0.00037128 12.2342 5.5585 -1.32916 90 -3.4191e-014 -4.13472e-014 
82.7419 88.5388 -56.3385 96.2123 44.9071 -2.42414 -0.569257 0.220043 0.293639 -1.13961 0.437571 0.589641 -1.13963 0.437572 0.589627 -18.8567 -0.537978 -10.9908 36.8851 -0.343106 9.97344 -163.259 -3.26886 -93.976 -21.7168 6.76008 88.4573 -21.6172 2.24721 -14.1574 4.75931 -79.991 6.90392 -163.026 -4.73098 74.3773 -16.5545 -4.85203 -84.9253 -23.0215 -2.8274 14.3459 1.6714 79.1615 -1.44715 -5.46934 -2.80868 176.497 -20.5704 1.0242 -1.13245 6.27323 -4.70623 0.480613 90 -3.18055e-014 -9.54166e-015 -12.4059 2.33505 -177.115 -36.0675 -0.5239 -0.00101477 12.2054 5.25098 -1.3149 90 2.14687e-014 9.54166e-015 
82.7552 88.5303 -56.4704 96.1582 44.8977 -2.48895 -0.520994 0.216864 0.309787 -1.04316 0.431365 0.621713 -1.04317 0.431362 0.621708 -18.8427 -0.538715 -10.8912 36.8425 -0.363246 9.89469 -163.264 -3.22156 -93.8767 -22.6029 6.67618 88.3168 -21.5021 2.21996 -14.0957 5.13369 -80.706 7.29509 -163.03 -4.70485 74.4725 -17.1155 -4.81393 -84.7891 -23.2259 -2.87005 14.4513 1.81769 79.8592 -1.59063 -5.4906 -2.69829 176.693 -20.5728 1.02887 -1.13413 6.10535 -4.52038 0.454632 90 -9.54166e-015 3.18055e-015 -12.4473 2.42201 -176.907 -36.0963 -0.5235 -0.00225248 12.2296 5.40384 -1.32274 90 -3.97569e-015 -6.36111e-015 
82.8418 88.5382 -56.6106 96.1907 45.2043 -2.36444 -0.481059 0.152876 0.274793 -0.962839 0.303868 0.551053 -0.962849 0.303859 0.551035 -18.7837 -0.57003 -11.042 36.9199 -0.197531 10.3076 -163.334 -3.29849 -94.0149 -23.1621 6.63212 88.2797 -21.5524 2.22471 -14.1236 5.54482 -81.2985 7.72944 -163.097 -4.80374 74.3392 -17.0064 -4.55867 -84.6536 -23.1685 -2.85887 14.4196 1.7694 79.461 -1.53742 -5.58151 -2.40125 176.682 -20.4791 1.02929 -1.13229 5.95381 -4.02772 0.430172 90 -4.77083e-015 -6.36111e-015 -12.5891 2.5155 -176.944 -36.2097 -0.523009 -0.00415828 12.2217 5.85288 -1.3393 90 1.11319e-014 6.36111e-015 
82.8381 88.4601 -56.687 96.1245 44.8307 -2.20804 -0.430935 0.258958 0.227132 -0.862915 0.516666 0.456382 -0.862911 0.51667 0.456377 -18.9569 -0.642821 -10.9071 37.2117 -0.34069 10.3162 -163.166 -3.35129 -93.8635 -22.9738 6.58307 88.1397 -21.8128 2.27034 -14.2606 5.24865 -80.9828 7.41705 -162.921 -4.8659 74.5049 -16.7565 -4.21065 -84.735 -23.1647 -2.85621 14.4122 1.70775 79.168 -1.47923 -5.69192 -2.16446 176.605 -20.8486 1.0281 -1.1196 6.25671 -4.05309 0.467122 90 0 6.36111e-015 -12.6154 2.26373 -177.177 -36.2067 -0.521617 -0.00745 12.3624 5.26795 -1.33539 90 -1.27222e-014 -9.54166e-015 
82.9093 88.3572 -56.8509 96.3201 44.8484 -2.15657 -0.443856 0.263964 0.182942 -0.888565 0.526997 0.368101 -0.888574 0.527003 0.368093 -18.8702 -0.656552 -10.8103 37.5575 -0.44832 10.119 -163.246 -3.3124 -93.7986 -22.3764 6.71744 88.2409 -22.2 2.33672 -14.4656 4.36869 -80.4558 6.5348 -163.006 -4.82374 74.6091 -17.6629 -4.41086 -84.7829 -23.5188 -2.93852 14.6167 1.83236 80.3779 -1.63244 -6.00025 -1.47223 176.643 -20.9328 1.02625 -1.10225 6.6046 -3.06602 0.491071 90 -1.51076e-014 -1.27222e-014 -13.1121 2.4774 -177.244 -36.7391 -0.518514 -0.0121441 12.5202 5.7953 -1.38835 90 9.54166e-015 1.27222e-014 
82.9324 88.2818 -56.9732 96.0556 44.8535 -1.78912 -0.367469 0.28667 0.111821 -0.735505 0.573151 0.225657 -0.735511 0.573132 0.225648 -18.5825 -0.708577 -10.7188 37.2269 -0.456134 10.1797 -163.53 -3.279 -93.7211 -22.941 6.84641 87.9726 -22.285 2.34337 -14.5019 5.07254 -81.2068 7.19005 -163.288 -4.81626 74.704 -17.5819 -4.25207 -84.9788 -23.6766 -2.9734 14.6991 1.81277 80.4024 -1.60873 -5.77458 -0.678981 176.691 -20.8127 1.02419 -1.08597 6.87039 -2.33379 0.495807 90 -7.95139e-016 -0 -13.4982 2.39935 -177.333 -37.688 -0.510761 -0.020187 12.9156 5.79961 -1.45351 90 -1.43125e-014 -9.54166e-015 
82.9561 88.1771 -56.9801 95.7464 45.0035 -0.890142 -0.289973 0.256434 -0.00805542 -0.57991 0.513586 -0.0146478 -0.579922 0.513596 -0.0146678 -18.595 -0.604297 -10.8365 37.7417 -0.292246 10.1075 -163.509 -3.21436 -93.8641 -22.8282 6.87709 88.0546 -22.4555 2.37575 -14.5912 5.67896 -81.5708 7.77844 -163.262 -4.75698 74.5655 -17.469 -4.14499 -84.8571 -23.6014 -2.95526 14.656 1.73123 79.9193 -1.51178 -5.44317 -0.1048 176.112 -20.6265 1.02236 -1.06622 6.95364 -1.95593 0.496527 90 -1.19271e-014 -1.27222e-014 -13.7183 2.61686 -177.914 -38.6703 -0.499944 -0.0263204 13.4552 6.06552 -1.55387 90 6.36111e-015 6.36111e-015 
82.7459 88.0996 -57.0163 94.7785 44.9804 -0.542909 -0.0765371 0.249012 0.0465838 -0.153276 0.498649 0.0936786 -0.153279 0.498654 0.0936728 -18.3323 -0.673908 -11.0616 37.3316 -0.337377 10.3349 -163.778 -3.30871 -94.0743 -21.9807 6.72671 87.9502 -22.6605 2.4186 -14.7075 4.99133 -80.9635 7.0774 -163.532 -4.8657 74.362 -18.1171 -4.02273 -84.9528 -23.8224 -3.006 14.7776 1.86512 80.4305 -1.65313 -4.99281 1.33607 176.83 -21.3473 1.02124 -1.00637 7.75978 -0.53437 0.509526 90 1.35174e-014 6.36111e-015 -13.0636 2.53724 -177.445 -38.8738 -0.494433 -0.0397114 13.7488 6.00415 -1.59832 90 -3.10104e-014 -1.59028e-014 
82.6942 88.0018 -56.9723 94.7241 45.1543 0.387478 0.025036 0.241806 -0.171019 0.0508028 0.484013 -0.341976 0.0507939 0.484015 -0.341988 -18.4371 -0.660882 -10.7498 37.353 -0.556205 9.84102 -163.628 -3.19337 -93.7538 -22.7476 6.64683 87.4752 -22.4953 2.38963 -14.6042 5.50108 -81.2118 7.64035 -163.395 -4.75567 74.6682 -18.1677 -3.82661 -85.1983 -23.9907 -3.04228 14.859 1.90205 80.4545 -1.69219 -4.74058 2.70506 176.166 -21.2351 1.02123 -0.95982 8.21289 0.898895 0.460306 90 -9.54166e-015 -3.18055e-015 -13.1335 2.30205 -178.493 -39.4369 -0.492669 -0.0437017 14.1672 5.67061 -1.63392 90 5.56597e-015 -3.18055e-015 
82.3504 87.9534 -57.0665 94.0235 45.4962 -0.113969 0.145469 0.207322 0.0414352 0.290804 0.415251 0.0825255 0.290808 0.415251 0.0825158 -18.3943 -0.663523 -10.9847 37.7814 -0.543227 9.97445 -163.693 -3.27695 -94.014 -22.0611 6.94665 87.698 -23.0204 2.49098 -14.8801 4.20612 -80.1901 6.43131 -163.456 -4.81315 74.4523 -18.62 -4.20395 -85.3255 -24.142 -3.07491 14.9393 1.95248 80.6146 -1.74225 -4.68943 2.00934 177.348 -22.1863 1.02279 -0.951105 8.54648 0.487186 0.5081 90 -7.95139e-016 -3.18055e-015 -12.1954 1.32912 -177.517 -38.885 -0.501056 -0.055149 14.2795 5.25835 -1.62481 90 -8.74653e-015 -0 
81.9652 87.8944 -57.1013 93.4365 45.2484 -0.0552008 0.256814 0.32001 0.112168 0.513029 0.64099 0.223079 0.513012 0.640985 0.223061 -18.2732 -0.655831 -10.8915 38.0791 -0.684704 9.65576 -163.8 -3.20723 -93.9507 -21.4406 6.9878 87.7645 -23.2299 2.53676 -14.9906 3.79516 -79.6349 6.0506 -163.558 -4.72829 74.5261 -18.9994 -4.58442 -85.4155 -24.1385 -3.07448 14.9395 2.0066 80.864 -1.79369 -4.66256 0.537719 177.596 -23.187 1.0274 -0.952613 8.77061 -1.0965 0.605461 90 -4.77083e-015 -3.18055e-015 -11.3207 1.5452 -177.042 -38.3021 -0.50682 -0.0672928 14.543 4.38932 -1.59055 90 -1.66979e-014 -1.90833e-014 
